<?xml version="1.0" encoding="UTF-8"?><svg id="a" xmlns="http://www.w3.org/2000/svg" viewBox="0 0 399.29 69"><defs><style>.b{fill:#0072bc;}.c{fill:none;stroke:#0072bc;stroke-miterlimit:10;}</style></defs><line class="c" x1="189.63" y1="0" x2="189.63" y2="67.15"/><g><path class="b" d="m238.73,8.61l-15.31,37.3h-1.39l-15.37-37.3v37.3h-3.59V3.89h5.36l14.3,34.84,14.24-34.84h5.42v42.02h-3.65V8.61Z"/><path class="b" d="m264.94,14.72c9.26,0,14.37,7.37,14.37,16.13v.88h-25.45c.31,6.62,4.72,12.1,11.91,12.1,3.84,0,7.37-1.45,9.96-4.22l1.7,2.14c-3.02,3.15-6.87,4.91-11.91,4.91-8.88,0-15.25-6.62-15.25-16,0-8.82,6.24-15.94,14.68-15.94Zm-11.09,14.43h22.11c-.06-5.17-3.47-11.59-11.09-11.59-7.18,0-10.77,6.3-11.03,11.59Zm9.58-18.27l9.7-9.07h3.91l-10.84,9.07h-2.77Z"/><path class="b" d="m295.67,32.49l-10.14,13.42h-3.91l12.03-15.62-11.34-14.81h3.91l9.45,12.54,9.39-12.54h3.91l-11.34,14.81,12.03,15.62h-3.91l-10.08-13.42Z"/><path class="b" d="m314.15,7.92c0-1.39,1.2-2.52,2.52-2.52s2.52,1.13,2.52,2.52-1.13,2.52-2.52,2.52-2.52-1.13-2.52-2.52Zm.88,7.56h3.28v30.43h-3.28V15.48Z"/><path class="b" d="m340.09,14.72c5.29,0,8.32,2.08,10.77,5.17l-2.27,2.02c-2.21-3.02-4.98-4.22-8.32-4.22-7.12,0-11.47,5.67-11.47,12.98s4.35,13.04,11.47,13.04c3.34,0,6.11-1.26,8.32-4.28l2.27,2.02c-2.46,3.15-5.48,5.23-10.77,5.23-8.95,0-14.81-7.12-14.81-16s5.86-15.94,14.81-15.94Z"/><path class="b" d="m354.48,30.66c0-8.88,5.73-15.94,14.62-15.94s14.68,7.06,14.68,15.94-5.67,16-14.68,16-14.62-7.12-14.62-16Zm25.77,0c0-6.74-3.97-12.98-11.15-12.98s-11.09,6.24-11.09,12.98,4.03,13.04,11.09,13.04,11.15-6.24,11.15-13.04Z"/></g><g><path class="b" d="m36.65,41.3c.71,0,.62-.4.62-1.16v-3.66c0-.76-.07-1,.36-1,1.51,0,1.92-.14,1.92-1.48v-13.62c0-3.71-2.62-3.09-3.35-4.45-1.05-1.83,1.96-1.83.86-5.8-.28-.9-.98-1.46-2.34-1.46s-2.07.55-2.34,1.46c-1.09,3.97,1.92,3.97.87,5.8-.74,1.36-3.35.74-3.35,4.45v13.62c0,1.34.41,1.48,1.92,1.48.42,0,.36.24.36,1v3.66c0,.75-.09,1.16.62,1.16h3.86"/><path class="b" d="m24.74,11.77c-1.34,1.42-3.45,4.75-2.07,7.51,2.81,1.08,2.59-8.9,6.09-8.73,1.73,1.6-.52,6.31-1.21,8.38-.86,2.56-1.55,7.91-3.2,10.5-1.38,2.16-.35,8.95-.78,11.28-1.16,1.17-4.32.34-5.66.12,0-2.68-.35-4.79-.78-9.07-.04-.86-.95-14.08-.22-15.68,1.51-3.33,9.76-9.67,10.89-10.89.99-1.08,4.49-4.66,5.83-4.66.95.65.39,2.16.17,2.76-1.34,3.33-7.13,6.61-9.07,8.47"/><path class="b" d="m44.87,11.77c1.29,1.42,3.41,4.75,2.07,7.51-2.85,1.08-2.63-8.9-6.13-8.73-1.68,1.6.56,6.31,1.26,8.38.86,2.56,1.56,7.91,3.19,10.5,1.34,2.16.35,8.95.73,11.28,1.21,1.17,4.32.34,5.7.12,0-2.68.3-4.79.73-9.07.09-.86.99-14.08.26-15.68-1.51-3.33-9.76-9.67-10.88-10.89-1.03-1.08-4.49-4.66-5.84-4.66-.99.65-.39,2.16-.17,2.76,1.34,3.33,7.13,6.61,9.07,8.47"/><path class="b" d="m12.74,7.29c-.73.69-2.38,1.17-3.51,2.68-.43-.82.69-2.81,2.03-3.98.99-.83,2.94-2.17,3.5-2.29.44.99-1.12,2.51-2.03,3.59"/><path class="b" d="m10.44,12.7c-1.25,1.16-2.59,1.64-4.33,3.77-.73-2.56-.56-4.81-.22-6.32.61-1.99,1.6-4.2,3.29-4.89-.35,1.13-.91,2.68-1.04,4.81-.73,2.9-1.17,2.99-.99,3.38.17,0,1.12-1.52,2.29-2.68,1.39-1.38,3.11-1.69,4.24-2.51-.17.56-1.16,2.33-3.24,4.46"/><path class="b" d="m4.34,24.69c-1.69-3.03-1.86-5.24-2-7.79.09-1.77.95-5.88,2.25-6.49-.39,3.72.61,4.07.22,7.14,0,.17-.44,3.38-.44,3.55.52-.09.05-2.95,5.97-7.05-1.29,2.25-.69,2.94-3.03,5.93-2.72,2.68-3.11,5.32-2.98,4.72"/><path class="b" d="m6.72,27.55c-1.26,1.82-1.04,2.72-1.34,3.59C2.39,29.41-.98,22.53.27,19.11c.78,2.59,1.86,3.16,2.64,5.32,1.34,3.25,1.13,4.24,1.99,4.98-.17-1.69.39-3.68.96-5.15.82-1.26,1.46-2.9,2.08-3.46.65,2.38.17,4.33-1.21,6.76"/><path class="b" d="m9.41,33.43c0,2.64-.48,3.81-.69,5.75-5.15-1.69-7.84-7.57-7.84-10.47,1.56,3.55,3.85,3.5,6.85,8.53.26-1.91-.52-.48-.61-4.07.08-3.77.87-3.9.99-6.23.96,1.04,1.3,5.19,1.3,6.49"/><path class="b" d="m13.69,40.92c.39,1.95.56,4.24.87,5.93-2.94-1.08-3.68-.26-7.18-2.47-1.6-.87-4.46-4.5-4.28-7.1,3.46,3.85,4.06,3.42,5.75,4.85,1.56,1.26,2.81,3.12,3.94,2.86.08-1.04-2.56-3.29-2.21-9.78.69.73,2.6,3.68,3.11,5.71"/><path class="b" d="m19.53,45.77c.91,1.3.69,1.86,3.03,4.54-.57.26-3.9,1.13-6.11,1.22-1.46,0-6.66-1.39-8.39-4.94,2.98,1.6,3.03,1.21,7.01,2.08,2.86.65,4.89,1.56,5.67,1.47-.17-.39-2.38-1.3-3.89-3.2-1.52-2.03-1.17-4.33-2.52-6.02.91-.26,4.46,3.9,5.2,4.85"/><path class="b" d="m56.62,7.29c.69.69,2.38,1.17,3.46,2.68.48-.82-.69-2.81-2.03-3.98-.95-.83-2.9-2.17-3.51-2.29-.43.99,1.13,2.51,2.08,3.59"/><path class="b" d="m58.92,12.7c1.21,1.16,2.56,1.64,4.28,3.77.74-2.56.56-4.81.22-6.32-.56-1.99-1.6-4.2-3.29-4.89.39,1.13.91,2.68,1.04,4.81.73,2.9,1.17,2.99,1,3.38-.17,0-1.13-1.52-2.3-2.68-1.34-1.38-3.07-1.69-4.24-2.51.17.56,1.21,2.33,3.29,4.46"/><path class="b" d="m64.98,24.69c1.73-3.03,1.86-5.24,1.99-7.79-.09-1.77-.96-5.88-2.21-6.49.35,3.72-.65,4.07-.22,7.14,0,.17.39,3.38.39,3.55-.48-.09-.05-2.95-5.93-7.05,1.26,2.25.65,2.94,2.99,5.93,2.77,2.68,3.11,5.32,2.99,4.72"/><path class="b" d="m62.64,27.55c1.22,1.82,1,2.72,1.3,3.59,2.99-1.73,6.4-8.61,5.11-12.03-.74,2.59-1.86,3.16-2.59,5.32-1.38,3.25-1.17,4.24-1.99,4.98.17-1.69-.43-3.68-1-5.15-.78-1.26-1.47-2.9-2.08-3.46-.6,2.38-.17,4.33,1.25,6.76"/><path class="b" d="m59.91,33.43c0,2.64.51,3.81.74,5.75,5.11-1.69,7.83-7.57,7.83-10.47-1.6,3.55-3.86,3.5-6.88,8.53-.26-1.91.51-.48.6-4.07-.09-3.77-.86-3.9-1-6.23-.95,1.04-1.3,5.19-1.3,6.49"/><path class="b" d="m55.63,40.92c-.39,1.95-.52,4.24-.82,5.93,2.9-1.08,3.64-.26,7.14-2.47,1.6-.87,4.5-4.5,4.33-7.1-3.46,3.85-4.11,3.42-5.75,4.85-1.56,1.26-2.86,3.12-3.99,2.86-.09-1.04,2.55-3.29,2.25-9.78-.74.73-2.64,3.68-3.16,5.71"/><path class="b" d="m49.78,45.77c-.87,1.3-.65,1.86-3.03,4.54.6.26,3.9,1.13,6.15,1.22,1.43,0,6.62-1.39,8.35-4.94-2.98,1.6-3.03,1.21-7.01,2.08-2.86.65-4.85,1.56-5.67,1.47.17-.39,2.42-1.3,3.9-3.2,1.51-2.03,1.17-4.33,2.55-6.02-.95-.26-4.5,3.9-5.24,4.85"/><path class="b" d="m27.28,57.97l-.87-.43s5.5-6.71,14.93-6.19c9.44.52,8.79,2.73,13.85,2.38.56-.04-.43.7-.43.7,0,0-4.94,1.9-11.04-.18-6.06-2.08-10-3.33-16.45,3.72"/><path class="b" d="m42.21,57.97l.87-.43s-5.46-6.71-14.89-6.19c-9.48.52-8.83,2.73-13.89,2.38-.56-.04.43.7.43.7,0,0,4.93,1.9,11.04-.18,6.1-2.08,10.04-3.33,16.44,3.72"/><path class="b" d="m76.65,49.07v5.28h3.16v1.2h-4.58v-6.48h1.42Z"/><path class="b" d="m80.44,52.3c.02-.3.09-.55.23-.75.13-.2.3-.36.51-.48.21-.12.44-.21.69-.26.26-.05.52-.08.78-.08.24,0,.47.02.72.05.24.03.46.1.66.2.2.1.36.23.49.4.13.17.19.4.19.68v2.44c0,.21.01.41.04.61.02.19.07.34.13.44h-1.31c-.02-.07-.04-.15-.06-.22-.01-.08-.03-.15-.03-.23-.21.21-.45.36-.73.44-.28.08-.56.13-.85.13-.22,0-.43-.03-.63-.08-.19-.05-.36-.14-.51-.25-.15-.11-.26-.26-.34-.44-.08-.18-.12-.38-.12-.63,0-.27.05-.49.14-.66.09-.17.21-.31.36-.41.15-.1.32-.18.51-.23.19-.05.38-.09.58-.12.19-.03.38-.05.57-.07.19-.02.35-.04.5-.08.15-.04.26-.09.34-.16.08-.07.12-.17.12-.3,0-.14-.02-.25-.07-.33-.05-.08-.11-.15-.18-.19-.08-.04-.16-.08-.26-.09-.1-.02-.21-.02-.32-.02-.25,0-.45.05-.6.16-.15.11-.23.29-.25.54h-1.29Zm2.98.95c-.05.05-.12.09-.2.11-.08.03-.17.05-.26.07-.09.02-.19.03-.29.05-.1.01-.21.03-.31.05-.1.02-.19.04-.29.07-.09.03-.18.07-.25.12-.07.05-.13.12-.17.19-.04.08-.06.18-.06.3s.02.21.06.29c.04.08.1.14.17.19.07.05.16.08.25.1.1.02.2.03.3.03.25,0,.45-.04.59-.13.14-.08.24-.19.31-.3.07-.12.11-.24.12-.36.01-.12.02-.22.02-.29v-.48Z"/><path class="b" d="m91.41,49.07l2.42,6.48h-1.48l-.49-1.44h-2.42l-.51,1.44h-1.43l2.45-6.48h1.46Zm.08,3.97l-.82-2.38h-.02l-.84,2.38h1.68Z"/><path class="b" d="m98.51,55.89c-.05.24-.16.47-.33.68-.17.21-.41.39-.74.53s-.75.22-1.29.22c-.23,0-.46-.03-.7-.09-.24-.06-.46-.15-.65-.27-.2-.12-.36-.28-.49-.47-.13-.19-.2-.42-.22-.69h1.28c.06.24.18.41.35.5.18.09.38.14.61.14.36,0,.63-.11.79-.33.17-.22.25-.49.24-.83v-.62h-.02c-.14.25-.34.43-.59.55-.26.12-.53.18-.81.18-.35,0-.65-.06-.91-.19-.25-.12-.46-.29-.63-.51-.16-.22-.28-.47-.36-.75-.08-.29-.11-.59-.11-.91,0-.3.04-.59.13-.88.09-.28.22-.53.39-.74.17-.21.38-.39.63-.51.25-.13.54-.19.87-.19.31,0,.58.06.81.17.23.11.43.31.59.58h.02v-.63h1.22v4.39c0,.19-.03.4-.08.64Zm-1.76-1.56c.14-.07.25-.17.34-.29.09-.12.16-.26.2-.41.05-.15.07-.32.07-.49,0-.19-.02-.38-.05-.55-.04-.17-.1-.32-.18-.46-.08-.13-.2-.24-.34-.32-.14-.08-.31-.12-.53-.12-.18,0-.34.04-.47.11-.13.07-.24.17-.33.29-.09.12-.15.27-.19.43-.04.16-.06.33-.06.5s.02.34.05.5c.03.17.09.32.17.45.08.13.19.24.32.33.13.08.3.13.5.13.18,0,.34-.04.48-.11Z"/><path class="b" d="m100.94,54.42c.19.19.47.28.83.28.26,0,.48-.06.67-.19.19-.13.3-.27.34-.41h1.13c-.18.56-.46.96-.83,1.21-.38.24-.83.36-1.36.36-.37,0-.7-.06-1-.18-.3-.12-.55-.29-.75-.5-.21-.22-.36-.48-.48-.78-.11-.3-.17-.64-.17-1s.06-.68.17-.98c.11-.3.28-.56.49-.78.21-.22.46-.39.76-.52.29-.13.62-.19.97-.19.4,0,.75.08,1.04.23.3.15.54.36.73.62.19.26.33.56.41.89s.11.68.09,1.04h-3.38c.02.42.12.72.32.91Zm1.46-2.47c-.15-.17-.39-.25-.7-.25-.21,0-.38.03-.51.1-.14.07-.25.16-.33.26-.08.1-.14.21-.17.33-.03.11-.05.22-.06.31h2.1c-.06-.33-.17-.57-.32-.74Z"/><path class="b" d="m105.97,50.85v.65h.03c.16-.27.37-.47.63-.59s.53-.19.8-.19c.34,0,.63.05.85.14.22.09.39.22.52.39.13.17.22.37.27.61.05.24.08.5.08.79v2.88h-1.29v-2.65c0-.39-.06-.68-.18-.87-.12-.19-.34-.29-.64-.29-.35,0-.6.1-.76.31-.16.21-.24.55-.24,1.03v2.46h-1.29v-4.69h1.22Z"/><path class="b" d="m112.29,51.7c-.21,0-.38.05-.52.14-.14.09-.25.21-.34.36-.09.15-.15.31-.19.49-.04.18-.05.36-.05.53s.02.34.05.52c.04.18.1.33.18.48.08.14.19.26.33.35.14.09.31.14.51.14.31,0,.55-.09.71-.26.17-.17.27-.4.31-.69h1.24c-.08.62-.33,1.1-.73,1.42-.4.33-.91.49-1.53.49-.35,0-.67-.06-.97-.18-.29-.12-.54-.28-.75-.49-.21-.21-.37-.46-.48-.76s-.17-.62-.17-.97.05-.7.16-1.01c.11-.31.26-.58.47-.81.21-.23.46-.4.75-.53.3-.13.64-.19,1.02-.19.28,0,.55.04.8.11.26.07.49.18.69.33.2.15.37.33.49.55.13.22.2.48.22.78h-1.26c-.08-.54-.4-.81-.95-.81Z"/><path class="b" d="m115.25,50.13v-1.06h1.29v1.06h-1.29Zm1.29.73v4.69h-1.29v-4.69h1.29Z"/><path class="b" d="m117.47,52.3c.02-.3.09-.55.23-.75.13-.2.3-.36.51-.48.21-.12.44-.21.69-.26.26-.05.52-.08.78-.08.24,0,.47.02.72.05.24.03.46.1.66.2.2.1.36.23.49.4.13.17.19.4.19.68v2.44c0,.21.01.41.04.61.02.19.07.34.13.44h-1.31c-.02-.07-.04-.15-.06-.22-.01-.08-.03-.15-.03-.23-.21.21-.45.36-.73.44-.28.08-.56.13-.85.13-.22,0-.43-.03-.63-.08-.19-.05-.36-.14-.51-.25s-.26-.26-.34-.44-.12-.38-.12-.63c0-.27.05-.49.14-.66.09-.17.21-.31.36-.41.15-.1.32-.18.51-.23.19-.05.38-.09.58-.12.19-.03.38-.05.57-.07.19-.02.35-.04.5-.08.15-.04.26-.09.34-.16.08-.07.12-.17.12-.3,0-.14-.02-.25-.07-.33-.05-.08-.11-.15-.18-.19-.08-.04-.16-.08-.26-.09-.1-.02-.21-.02-.32-.02-.25,0-.45.05-.6.16-.15.11-.23.29-.25.54h-1.29Zm2.98.95c-.05.05-.12.09-.2.11-.08.03-.17.05-.26.07-.09.02-.19.03-.29.05-.1.01-.21.03-.31.05-.1.02-.19.04-.29.07s-.18.07-.25.12c-.07.05-.13.12-.17.19-.04.08-.06.18-.06.3s.02.21.06.29c.04.08.1.14.17.19.07.05.16.08.25.1.1.02.2.03.3.03.25,0,.45-.04.59-.13.14-.08.24-.19.31-.3.07-.12.11-.24.12-.36.01-.12.02-.22.02-.29v-.48Z"/><path class="b" d="m128.4,54.95c-.15.25-.35.44-.59.55-.24.11-.52.17-.83.17-.35,0-.66-.07-.93-.2-.27-.14-.49-.32-.66-.55-.17-.23-.3-.5-.39-.8-.09-.3-.13-.62-.13-.94s.04-.62.13-.91c.09-.29.22-.55.39-.78.17-.22.39-.4.65-.54.26-.14.56-.2.91-.2.28,0,.54.06.79.18.25.12.45.29.59.52h.02v-2.36h1.29v6.48h-1.22v-.6h-.02Zm-.05-2.32c-.04-.18-.1-.34-.19-.47-.09-.14-.2-.25-.34-.33-.14-.08-.31-.13-.53-.13s-.39.04-.53.13-.26.2-.35.34c-.09.14-.15.3-.19.48-.04.18-.06.36-.06.56,0,.18.02.36.06.54.04.18.11.34.2.49.09.14.21.26.35.34.14.09.31.13.51.13.21,0,.39-.04.53-.13.14-.08.25-.2.34-.34s.15-.3.18-.49c.04-.18.05-.37.05-.56s-.02-.38-.05-.56Z"/><path class="b" d="m131.97,54.42c.19.19.47.28.83.28.26,0,.48-.06.67-.19.19-.13.3-.27.34-.41h1.13c-.18.56-.46.96-.83,1.21-.38.24-.83.36-1.36.36-.37,0-.7-.06-1-.18-.3-.12-.55-.29-.75-.5-.21-.22-.36-.48-.48-.78-.11-.3-.17-.64-.17-1s.06-.68.17-.98c.11-.3.28-.56.49-.78.21-.22.46-.39.76-.52.29-.13.62-.19.97-.19.4,0,.75.08,1.04.23s.54.36.73.62c.19.26.33.56.41.89.08.33.11.68.09,1.04h-3.38c.02.42.12.72.32.91Zm1.46-2.47c-.15-.17-.39-.25-.7-.25-.21,0-.38.03-.51.1-.14.07-.25.16-.33.26-.08.1-.14.21-.17.33-.03.11-.05.22-.06.31h2.1c-.06-.33-.17-.57-.32-.74Z"/><path class="b" d="m139.47,49.07v6.48h-1.29v-6.48h1.29Z"/><path class="b" d="m140.39,52.3c.02-.3.09-.55.23-.75.13-.2.3-.36.51-.48.21-.12.44-.21.69-.26.26-.05.52-.08.78-.08.24,0,.47.02.72.05.24.03.46.1.66.2.2.1.36.23.49.4.13.17.19.4.19.68v2.44c0,.21.01.41.04.61.02.19.07.34.13.44h-1.31c-.02-.07-.04-.15-.06-.22-.01-.08-.03-.15-.03-.23-.21.21-.45.36-.73.44-.28.08-.56.13-.85.13-.22,0-.43-.03-.63-.08-.19-.05-.36-.14-.51-.25s-.26-.26-.34-.44c-.08-.18-.12-.38-.12-.63,0-.27.05-.49.14-.66.09-.17.21-.31.36-.41.15-.1.32-.18.51-.23.19-.05.38-.09.58-.12.19-.03.38-.05.57-.07.19-.02.35-.04.5-.08.15-.04.26-.09.34-.16.08-.07.12-.17.12-.3,0-.14-.02-.25-.07-.33-.05-.08-.11-.15-.18-.19-.08-.04-.16-.08-.26-.09-.1-.02-.21-.02-.32-.02-.25,0-.45.05-.6.16-.15.11-.23.29-.25.54h-1.29Zm2.98.95c-.05.05-.12.09-.2.11-.08.03-.17.05-.26.07-.09.02-.19.03-.29.05-.1.01-.21.03-.31.05-.1.02-.19.04-.29.07-.09.03-.18.07-.25.12-.07.05-.13.12-.17.19-.04.08-.06.18-.06.3s.02.21.06.29c.04.08.1.14.17.19.07.05.16.08.25.1.1.02.2.03.3.03.25,0,.45-.04.59-.13.14-.08.24-.19.31-.3.07-.12.11-.24.12-.36.01-.12.02-.22.02-.29v-.48Z"/><path class="b" d="m148.07,50.98c.15-.41.35-.78.63-1.08.27-.31.61-.55,1-.73.4-.18.84-.26,1.34-.26s.95.09,1.34.26c.39.18.73.42,1,.73.27.31.48.67.63,1.08.15.41.22.86.22,1.35s-.07.91-.22,1.32c-.15.41-.35.76-.63,1.07-.27.3-.6.54-1,.71-.39.17-.84.26-1.34.26s-.94-.09-1.34-.26c-.4-.17-.73-.41-1-.71-.27-.3-.48-.66-.63-1.07-.15-.41-.22-.85-.22-1.32s.07-.93.22-1.35Zm1.3,2.14c.06.26.17.49.3.69.14.21.32.37.54.49.22.12.5.19.82.19s.59-.06.82-.19c.22-.12.41-.29.54-.49.14-.21.24-.44.3-.69.06-.26.1-.52.1-.79s-.03-.56-.1-.83c-.06-.27-.17-.5-.3-.71-.14-.21-.32-.37-.54-.5-.22-.12-.5-.19-.82-.19s-.59.06-.82.19c-.22.12-.41.29-.54.5-.14.21-.24.45-.3.71-.06.27-.1.54-.1.83s.03.54.1.79Z"/><path class="b" d="m156.52,49.07l2.7,4.35h.02v-4.35h1.33v6.48h-1.42l-2.69-4.34h-.02v4.34h-1.33v-6.48h1.42Z"/><path class="b" d="m166.52,55.05c-.49.43-1.17.64-2.03.64s-1.56-.21-2.04-.64c-.48-.42-.72-1.08-.72-1.96v-4.03h1.42v4.03c0,.18.02.35.05.52.03.17.09.32.19.45.1.13.23.24.4.32.17.08.4.12.69.12.51,0,.86-.11,1.05-.34.19-.23.29-.58.29-1.07v-4.03h1.42v4.03c0,.88-.24,1.53-.73,1.95Z"/><path class="b" d="m92.97,15.42c0,5.42-2.93,8.02-8.9,8.02s-8.93-2.6-8.93-8.02V3.43h6.02v10.65c0,2,0,4.49,2.93,4.49s2.85-2.49,2.85-4.49V3.43h6.02v11.99"/><polygon class="b" points="95.92 3.43 102.08 3.43 107.78 13.89 107.83 13.89 107.83 3.43 113.52 3.43 113.52 22.98 107.67 22.98 101.67 12.3 101.62 12.3 101.62 22.98 95.92 22.98 95.92 3.43"/><polygon class="b" points="116.62 26.28 122.78 26.28 128.47 36.74 128.53 36.74 128.53 26.28 134.22 26.28 134.22 45.83 128.36 45.83 122.37 35.15 122.31 35.15 122.31 45.83 116.62 45.83 116.62 26.28"/><polygon class="b" points="116.58 3.43 122.6 3.43 122.6 10.22 128.24 10.22 128.24 3.43 134.26 3.43 134.26 22.98 128.24 22.98 128.24 15.23 122.6 15.23 122.6 22.98 116.58 22.98 116.58 3.43"/><path class="b" d="m149.68,10.71c-.11-.71-.66-2.87-3.15-2.87-2.82,0-3.72,2.74-3.72,5.36s.9,5.37,3.72,5.37c2.03,0,2.82-1.42,3.18-3.26h5.91c0,3.94-3.2,8.13-8.93,8.13-6.32,0-9.91-4.46-9.91-10.24,0-6.16,3.89-10.24,9.91-10.24,5.37.03,8.32,2.85,8.84,7.75h-5.86"/><path class="b" d="m107.71,33.56c-.11-.71-.66-2.87-3.15-2.87-2.82,0-3.72,2.74-3.72,5.36s.9,5.37,3.72,5.37c2.03,0,2.82-1.42,3.18-3.26h5.91c0,3.94-3.2,8.13-8.93,8.13-6.32,0-9.91-4.46-9.91-10.24,0-6.16,3.89-10.24,9.91-10.24,5.37.03,8.32,2.85,8.84,7.75h-5.86"/><path class="b" d="m164.14,8.08h2.82c2.3,0,2.98.71,2.98,1.95,0,1.75-1.53,1.94-2.66,1.94h-3.15v-3.89Zm-6.02,14.89h6.02v-6.82h3.21c2.38,0,2.54,1.94,2.71,3.81.08,1.01.19,2.03.49,3.01h6.02c-.55-.9-.57-3.23-.66-4.19-.22-2.44-1.23-4.24-2.87-4.87,2-.74,2.93-2.87,2.93-4.9,0-3.7-2.96-5.58-6.38-5.58h-11.47v19.55"/><path class="b" d="m164.14,30.93h2.82c2.3,0,2.98.71,2.98,1.95,0,1.75-1.53,1.94-2.66,1.94h-3.15v-3.89Zm-6.02,14.89h6.02v-6.82h3.21c2.38,0,2.54,1.94,2.71,3.81.08,1.01.19,2.03.49,3.01h6.02c-.55-.9-.57-3.23-.66-4.19-.22-2.44-1.23-4.24-2.87-4.87,2-.74,2.93-2.87,2.93-4.9,0-3.7-2.96-5.58-6.38-5.58h-11.47v19.55"/><path class="b" d="m84.08,32.82h.05l1.76,6.02h-3.7l1.89-6.02Zm-2.93-6.54l-7.19,19.55h6.04l.88-2.79h6.22l.81,2.79h6.24l-7.11-19.55h-5.9Z"/><path class="b" d="m155.11,38.27c0,5.42-2.93,8.02-8.9,8.02s-8.93-2.6-8.93-8.02v-11.99h6.02v10.65c0,2,0,4.49,2.93,4.49s2.85-2.49,2.85-4.49v-10.65h6.02v11.99"/><g><path class="b" d="m76.51,60.9v.6h.02c.16-.25.36-.44.6-.55.24-.11.51-.17.8-.17.37,0,.69.07.95.21.27.14.49.32.66.55s.31.5.39.8c.08.31.13.62.13.96,0,.31-.04.62-.13.91s-.21.55-.39.77c-.17.22-.39.4-.64.53-.26.13-.56.2-.9.2-.29,0-.56-.06-.8-.18-.25-.12-.45-.29-.6-.52h-.02v2.22h-1.29v-6.33h1.22Zm1.67,3.72c.14-.08.26-.2.34-.33.09-.14.15-.29.19-.48.04-.18.05-.37.05-.55s-.02-.37-.06-.55c-.04-.18-.1-.34-.2-.49-.09-.14-.21-.26-.35-.34-.14-.09-.32-.13-.52-.13s-.39.04-.53.13c-.14.09-.26.2-.34.34-.09.14-.15.3-.19.48-.04.18-.05.37-.05.56s.02.37.06.55c.04.18.1.34.19.48.09.14.2.25.35.33s.32.13.53.13.39-.04.53-.13Z"/><path class="b" d="m80.72,62.34c.02-.3.09-.55.23-.75.13-.2.3-.36.51-.48.21-.12.44-.21.69-.26.26-.05.52-.08.78-.08.24,0,.47.02.72.05.24.03.46.1.66.2.2.1.36.23.49.4.13.17.19.4.19.68v2.44c0,.21.01.41.04.61.02.19.07.34.13.44h-1.31c-.02-.07-.04-.15-.06-.22-.01-.08-.03-.15-.03-.23-.21.21-.45.36-.73.44-.28.08-.56.13-.85.13-.22,0-.43-.03-.63-.08-.19-.05-.36-.14-.51-.25s-.26-.26-.34-.44c-.08-.18-.12-.38-.12-.63,0-.27.05-.49.14-.66.09-.17.21-.31.36-.41.15-.1.32-.18.51-.23.19-.05.38-.09.58-.12.19-.03.38-.05.57-.07.19-.02.35-.04.5-.08.15-.04.26-.09.34-.16.08-.07.12-.17.12-.3,0-.14-.02-.25-.07-.33-.05-.08-.11-.15-.18-.19-.08-.04-.16-.08-.26-.09-.1-.02-.21-.02-.32-.02-.25,0-.45.05-.6.16-.15.11-.23.29-.25.54h-1.29Zm2.98.95c-.05.05-.12.09-.2.11-.08.03-.17.05-.26.07-.09.02-.19.03-.29.05-.1.01-.21.03-.31.05-.1.02-.19.04-.29.07s-.18.07-.25.12c-.07.05-.13.12-.17.19-.04.08-.06.18-.06.3s.02.21.06.29c.04.08.1.14.17.19.07.05.16.08.25.1.1.02.2.03.3.03.25,0,.45-.04.59-.13.14-.08.24-.19.31-.3.07-.12.11-.24.12-.36.01-.12.02-.22.02-.29v-.48Z"/><path class="b" d="m87.18,60.9v.87h.02c.06-.15.14-.28.25-.4.1-.12.22-.23.35-.32.13-.09.27-.16.43-.2.15-.05.31-.07.47-.07.08,0,.18.02.28.05v1.2c-.06-.01-.13-.02-.22-.03-.08,0-.17-.01-.24-.01-.24,0-.44.04-.6.12-.16.08-.29.19-.39.32-.1.14-.17.3-.21.48-.04.18-.06.38-.06.59v2.11h-1.29v-4.69h1.22Z"/><path class="b" d="m89.45,62.34c.02-.3.09-.55.23-.75.13-.2.3-.36.51-.48.21-.12.44-.21.69-.26.26-.05.52-.08.78-.08.24,0,.47.02.72.05.24.03.46.1.66.2.2.1.36.23.49.4.13.17.19.4.19.68v2.44c0,.21.01.41.04.61.02.19.07.34.13.44h-1.31c-.02-.07-.04-.15-.06-.22-.01-.08-.03-.15-.03-.23-.21.21-.45.36-.73.44-.28.08-.56.13-.85.13-.22,0-.43-.03-.63-.08-.19-.05-.36-.14-.51-.25s-.26-.26-.34-.44-.12-.38-.12-.63c0-.27.05-.49.14-.66.09-.17.21-.31.36-.41.15-.1.32-.18.51-.23.19-.05.38-.09.58-.12.19-.03.38-.05.57-.07.19-.02.35-.04.5-.08.15-.04.26-.09.34-.16.08-.07.12-.17.12-.3,0-.14-.02-.25-.07-.33-.05-.08-.11-.15-.18-.19-.08-.04-.16-.08-.26-.09-.1-.02-.21-.02-.32-.02-.25,0-.45.05-.6.16-.15.11-.23.29-.25.54h-1.29Zm2.98.95c-.05.05-.12.09-.2.11-.08.03-.17.05-.26.07-.09.02-.19.03-.29.05-.1.01-.21.03-.31.05-.1.02-.19.04-.29.07s-.18.07-.25.12c-.07.05-.13.12-.17.19-.04.08-.06.18-.06.3s.02.21.06.29c.04.08.1.14.17.19.07.05.16.08.25.1.1.02.2.03.3.03.25,0,.45-.04.59-.13.14-.08.24-.19.31-.3.07-.12.11-.24.12-.36.01-.12.02-.22.02-.29v-.48Z"/><path class="b" d="m98.38,59.11v6.48h-1.29v-6.48h1.29Z"/><path class="b" d="m99.35,62.23c.11-.31.28-.57.49-.78.21-.21.47-.38.76-.5.3-.12.63-.18,1-.18s.7.06,1,.18c.3.12.55.28.77.5.21.21.38.47.49.78.11.31.17.65.17,1.02s-.06.71-.17,1.02c-.11.3-.28.56-.49.78-.21.21-.47.38-.77.49-.3.11-.63.17-1,.17s-.7-.06-1-.17c-.3-.11-.55-.28-.76-.49-.21-.22-.38-.47-.49-.78-.11-.3-.17-.64-.17-1.02s.06-.71.17-1.02Zm1.17,1.57c.04.18.1.34.19.48.09.14.2.26.35.34.15.08.33.13.54.13s.4-.04.55-.13c.15-.08.27-.2.35-.34.09-.14.15-.3.19-.48.04-.18.05-.36.05-.55s-.02-.37-.05-.55c-.04-.18-.1-.34-.19-.48-.09-.14-.21-.25-.35-.34-.15-.09-.33-.13-.55-.13s-.4.04-.54.13c-.15.09-.26.2-.35.34-.09.14-.15.3-.19.48-.04.18-.05.37-.05.55s.02.37.05.55Z"/><path class="b" d="m105.86,64.42c.06.1.13.18.22.24.09.06.2.11.31.14.12.03.24.05.37.05.09,0,.19-.01.29-.03.1-.02.19-.05.27-.1.08-.05.15-.11.2-.18.05-.08.08-.17.08-.29,0-.19-.13-.34-.39-.44-.26-.1-.62-.19-1.08-.29-.19-.04-.37-.09-.55-.15-.18-.06-.34-.13-.48-.23-.14-.09-.25-.21-.34-.35-.08-.14-.13-.32-.13-.52,0-.3.06-.55.18-.74.12-.19.27-.35.47-.46.19-.11.41-.19.65-.24.24-.04.49-.07.74-.07s.5.02.74.07c.24.05.45.13.64.25.19.11.34.27.47.46.12.19.2.43.22.72h-1.22c-.02-.25-.11-.42-.28-.5-.17-.09-.37-.13-.6-.13-.07,0-.15,0-.24.01s-.16.03-.23.06c-.07.03-.13.07-.18.13-.05.06-.07.13-.07.23,0,.11.04.21.13.28.08.07.2.13.33.18.14.05.29.09.47.12.18.04.35.08.54.12.19.04.37.09.55.15.18.06.34.14.48.24.14.1.25.22.34.37.08.15.13.33.13.55,0,.31-.06.57-.19.78-.12.21-.29.38-.49.5-.2.13-.43.22-.68.27-.26.05-.52.08-.78.08s-.54-.03-.8-.08c-.26-.05-.49-.15-.69-.27-.2-.13-.37-.29-.5-.5-.13-.21-.2-.47-.21-.78h1.22c0,.14.03.26.09.36Z"/><path class="b" d="m115.62,59.11c.29,0,.55.05.78.14.23.09.43.22.6.39.17.16.29.35.38.57.09.22.13.45.13.69,0,.38-.08.71-.24.99-.16.28-.42.49-.78.64v.02c.18.05.32.12.44.22.11.1.21.22.28.35.07.14.13.29.16.45.03.16.06.33.07.49,0,.1.01.22.02.36,0,.14.02.28.03.43.02.15.04.28.07.41.03.13.08.24.15.33h-1.42c-.08-.21-.13-.45-.15-.73-.02-.28-.04-.56-.08-.82-.05-.34-.15-.59-.31-.74-.16-.16-.41-.24-.77-.24h-1.42v2.53h-1.42v-6.48h3.49Zm-.51,2.93c.33,0,.57-.07.73-.22.16-.15.25-.38.25-.71s-.08-.54-.25-.68c-.16-.14-.41-.21-.73-.21h-1.56v1.82h1.56Z"/><path class="b" d="m119.79,64.47c.19.19.47.28.83.28.26,0,.48-.06.67-.19.19-.13.3-.27.34-.41h1.13c-.18.56-.46.96-.83,1.21-.38.24-.83.36-1.36.36-.37,0-.7-.06-1-.18-.3-.12-.55-.29-.75-.5-.21-.22-.36-.48-.48-.78-.11-.3-.17-.64-.17-1s.06-.68.17-.98c.11-.3.28-.56.49-.78.21-.22.46-.39.76-.52.29-.13.62-.19.97-.19.4,0,.75.08,1.04.23s.54.36.73.62c.19.26.33.56.41.89s.11.68.09,1.04h-3.38c.02.42.12.72.32.91Zm1.46-2.47c-.15-.17-.39-.25-.7-.25-.21,0-.38.03-.51.1-.14.07-.25.16-.33.26-.08.1-.14.21-.17.33-.03.11-.05.22-.06.31h2.1c-.06-.33-.17-.57-.32-.74Z"/><path class="b" d="m123.07,61.76v-.86h.77v-.36c0-.42.13-.76.39-1.02.26-.27.65-.4,1.18-.4.11,0,.23,0,.34.01.11,0,.23.02.34.02v.96c-.15-.02-.31-.03-.47-.03-.18,0-.3.04-.38.12-.08.08-.11.22-.11.41v.28h.89v.86h-.89v3.83h-1.29v-3.83h-.77Z"/><path class="b" d="m129.73,65.59v-.65h-.03c-.16.27-.38.47-.64.59-.26.12-.53.18-.8.18-.34,0-.63-.05-.85-.14-.22-.09-.39-.22-.52-.39-.13-.17-.22-.37-.27-.61-.05-.24-.08-.5-.08-.79v-2.89h1.29v2.65c0,.39.06.68.18.87.12.19.34.29.64.29.35,0,.6-.1.76-.31.16-.21.24-.55.24-1.03v-2.46h1.29v4.69h-1.22Z"/><path class="b" d="m136.32,65.94c-.05.24-.16.47-.33.68-.17.21-.41.39-.74.53s-.75.22-1.29.22c-.23,0-.46-.03-.7-.09-.24-.06-.46-.15-.65-.27-.2-.12-.36-.28-.49-.47-.13-.19-.2-.42-.22-.69h1.28c.06.24.18.41.35.5.18.09.38.14.61.14.36,0,.63-.11.79-.33.17-.22.25-.49.24-.83v-.62h-.02c-.14.25-.34.43-.59.55-.26.12-.53.18-.81.18-.35,0-.65-.06-.91-.19-.25-.12-.46-.29-.63-.51-.16-.22-.28-.47-.36-.75-.08-.29-.11-.59-.11-.91,0-.3.04-.59.13-.88.09-.28.22-.53.39-.74.17-.21.38-.39.63-.51.25-.13.54-.19.87-.19.31,0,.58.06.81.17.23.11.43.31.59.58h.02v-.63h1.22v4.39c0,.19-.03.4-.08.64Zm-1.76-1.56c.14-.07.25-.17.34-.29.09-.12.16-.26.2-.41.05-.15.07-.32.07-.49,0-.19-.02-.38-.05-.55-.04-.17-.1-.32-.18-.46-.08-.13-.2-.24-.34-.32-.14-.08-.31-.12-.53-.12-.18,0-.34.04-.47.11-.13.07-.24.17-.33.29-.09.12-.15.27-.19.43-.04.16-.06.33-.06.5s.02.34.05.5c.03.17.09.32.17.45.08.13.19.24.32.33.13.08.3.13.5.13.18,0,.34-.04.48-.11Z"/><path class="b" d="m137.4,60.17v-1.06h1.29v1.06h-1.29Zm1.29.73v4.69h-1.29v-4.69h1.29Z"/><path class="b" d="m139.62,62.34c.02-.3.09-.55.23-.75.13-.2.3-.36.51-.48.21-.12.44-.21.69-.26.26-.05.52-.08.78-.08.24,0,.47.02.72.05.24.03.46.1.66.2.2.1.36.23.49.4.13.17.19.4.19.68v2.44c0,.21.01.41.04.61.02.19.07.34.13.44h-1.31c-.02-.07-.04-.15-.06-.22-.01-.08-.03-.15-.03-.23-.21.21-.45.36-.73.44-.28.08-.56.13-.85.13-.22,0-.43-.03-.63-.08-.19-.05-.36-.14-.51-.25s-.26-.26-.34-.44-.12-.38-.12-.63c0-.27.05-.49.14-.66.09-.17.21-.31.36-.41.15-.1.32-.18.51-.23.19-.05.38-.09.58-.12.19-.03.38-.05.57-.07.19-.02.35-.04.5-.08.15-.04.26-.09.34-.16.08-.07.12-.17.12-.3,0-.14-.02-.25-.07-.33-.05-.08-.11-.15-.18-.19-.08-.04-.16-.08-.26-.09-.1-.02-.21-.02-.32-.02-.25,0-.45.05-.6.16-.15.11-.23.29-.25.54h-1.29Zm2.98.95c-.05.05-.12.09-.2.11-.08.03-.17.05-.26.07-.09.02-.19.03-.29.05-.1.01-.21.03-.31.05-.1.02-.19.04-.29.07-.09.03-.18.07-.25.12-.07.05-.13.12-.17.19-.04.08-.06.18-.06.3s.02.21.06.29c.04.08.1.14.17.19.07.05.16.08.25.1.1.02.2.03.3.03.25,0,.45-.04.59-.13.14-.08.24-.19.31-.3.07-.12.11-.24.12-.36.01-.12.02-.22.02-.29v-.48Z"/><path class="b" d="m148.14,64.99c-.15.25-.35.44-.59.55-.24.11-.52.17-.83.17-.35,0-.66-.07-.93-.2-.27-.14-.49-.32-.66-.55-.17-.23-.3-.5-.39-.8-.09-.3-.13-.62-.13-.94s.04-.62.13-.91c.09-.29.22-.55.39-.78.17-.22.39-.4.65-.54.26-.14.56-.2.91-.2.28,0,.54.06.79.18.25.12.45.29.59.52h.02v-2.36h1.29v6.48h-1.22v-.6h-.02Zm-.05-2.32c-.04-.18-.1-.34-.19-.47-.09-.14-.2-.25-.34-.33-.14-.08-.31-.13-.53-.13s-.39.04-.53.13-.26.2-.35.34c-.09.14-.15.3-.19.48-.04.18-.06.36-.06.56,0,.18.02.36.06.54.04.18.11.34.2.49.09.14.21.26.35.34.14.09.31.13.51.13.21,0,.39-.04.53-.13.14-.08.25-.2.34-.34s.15-.3.18-.49c.04-.18.05-.37.05-.56s-.02-.38-.05-.56Z"/><path class="b" d="m150.32,62.23c.11-.31.28-.57.49-.78.21-.21.47-.38.76-.5.3-.12.63-.18,1-.18s.7.06,1,.18c.3.12.55.28.77.5.21.21.38.47.49.78.11.31.17.65.17,1.02s-.06.71-.17,1.02c-.11.3-.28.56-.49.78-.21.21-.47.38-.77.49-.3.11-.63.17-1,.17s-.7-.06-1-.17c-.3-.11-.55-.28-.76-.49-.21-.22-.38-.47-.49-.78-.12-.3-.17-.64-.17-1.02s.06-.71.17-1.02Zm1.17,1.57c.04.18.1.34.19.48.09.14.2.26.35.34s.33.13.54.13.4-.04.55-.13c.15-.08.27-.2.35-.34.09-.14.15-.3.19-.48.04-.18.05-.36.05-.55s-.02-.37-.05-.55c-.04-.18-.1-.34-.19-.48-.09-.14-.21-.25-.35-.34-.15-.09-.33-.13-.55-.13s-.4.04-.54.13c-.15.09-.26.2-.35.34-.09.14-.15.3-.19.48-.04.18-.05.37-.05.55s.02.37.05.55Z"/><path class="b" d="m156.83,64.42c.06.1.13.18.22.24.09.06.2.11.31.14.12.03.24.05.37.05.09,0,.19-.01.29-.03.1-.02.19-.05.27-.1.08-.05.15-.11.2-.18.05-.08.08-.17.08-.29,0-.19-.13-.34-.39-.44-.26-.1-.62-.19-1.08-.29-.19-.04-.37-.09-.55-.15-.18-.06-.34-.13-.48-.23-.14-.09-.25-.21-.34-.35-.08-.14-.13-.32-.13-.52,0-.3.06-.55.18-.74.12-.19.27-.35.47-.46.19-.11.41-.19.65-.24.24-.04.49-.07.74-.07s.5.02.74.07c.24.05.45.13.64.25.19.11.34.27.47.46.12.19.2.43.22.72h-1.22c-.02-.25-.11-.42-.28-.5-.17-.09-.37-.13-.6-.13-.07,0-.15,0-.24.01-.08,0-.16.03-.23.06-.07.03-.13.07-.18.13-.05.06-.07.13-.07.23,0,.11.04.21.13.28.08.07.2.13.33.18s.29.09.47.12c.18.04.35.08.54.12.19.04.37.09.55.15.18.06.34.14.48.24.14.1.25.22.34.37.08.15.13.33.13.55,0,.31-.06.57-.19.78s-.29.38-.49.5c-.2.13-.43.22-.68.27-.26.05-.52.08-.78.08s-.54-.03-.8-.08c-.26-.05-.49-.15-.69-.27-.2-.13-.37-.29-.5-.5-.13-.21-.2-.47-.21-.78h1.22c0,.14.03.26.09.36Z"/></g></g></svg>